<svg width="19" height="20" viewBox="0 0 19 20" fill="none" xmlns="http://www.w3.org/2000/svg">
<path d="M10.6875 17.125H8.3125C7.99756 17.125 7.69551 16.9999 7.47281 16.7772C7.25011 16.5545 7.125 16.2524 7.125 15.9375V11.4309L2.72531 7.03125C2.50231 6.80957 2.37633 6.5085 2.375 6.19406V4.0625C2.375 3.74756 2.50011 3.44551 2.72281 3.22281C2.94551 3.00011 3.24756 2.875 3.5625 2.875H15.4375C15.7524 2.875 16.0545 3.00011 16.2772 3.22281C16.4999 3.44551 16.625 3.74756 16.625 4.0625V6.19406C16.6237 6.5085 16.4977 6.80957 16.2747 7.03125L11.875 11.4309V15.9375C11.875 16.2524 11.7499 16.5545 11.5272 16.7772C11.3045 16.9999 11.0024 17.125 10.6875 17.125ZM3.5625 4.0625V6.19406L8.3125 10.9441V15.9375H10.6875V10.9441L15.4375 6.19406V4.0625H3.5625Z" fill="#8B909A"/>
</svg>
