<svg width="435" height="204" viewBox="0 0 435 204" fill="none" xmlns="http://www.w3.org/2000/svg">
<path d="M17 175.5L65.2558 134.5H130.401L140.857 98.5L170.614 68.5L188.308 109.5L239.781 91.5L246.215 60.5L292.058 40.5L307.339 76.5L341.922 98.5L349.965 68.5L385.353 40.5L432 84.5" stroke="#0F60FF" stroke-width="4" stroke-linecap="square"/>
<path d="M17 145.5L65.2558 104.5L97 37L140.857 68.5L170.614 38.5L180.5 37L246.215 30.5L292.058 10.5L349.965 38.5L385.353 10.5L416.719 54.5H432" stroke="#28C76F" stroke-width="4" stroke-linecap="square"/>
<path d="M6.59974 159.495L63.8229 132.381L111.956 75.3974L146.165 117.175L182.673 95.8991L192.61 97.0088L257.769 107.739L307.226 100.285L355.913 142.319L399 124.432L431.011 179.006" stroke="#FFC600" stroke-width="4" stroke-linecap="square"/>
</svg>
