<svg width="25" height="25" viewBox="0 0 25 25" fill="none" xmlns="http://www.w3.org/2000/svg">
<path d="M12.15 15.15C12.25 15.25 12.3667 15.3 12.5 15.3C12.6333 15.3 12.75 15.25 12.85 15.15L15.65 12.35C15.8167 12.1833 15.8583 12 15.775 11.8C15.6917 11.6 15.5333 11.5 15.3 11.5H9.7C9.46667 11.5 9.30833 11.6 9.225 11.8C9.14167 12 9.18333 12.1833 9.35 12.35L12.15 15.15ZM12.5 22.5C11.1167 22.5 9.81667 22.2373 8.6 21.712C7.38333 21.1867 6.325 20.4743 5.425 19.575C4.525 18.675 3.81267 17.6167 3.288 16.4C2.76333 15.1833 2.50067 13.8833 2.5 12.5C2.5 11.1167 2.76267 9.81667 3.288 8.6C3.81333 7.38333 4.52567 6.325 5.425 5.425C6.325 4.525 7.38333 3.81267 8.6 3.288C9.81667 2.76333 11.1167 2.50067 12.5 2.5C13.8833 2.5 15.1833 2.76267 16.4 3.288C17.6167 3.81333 18.675 4.52567 19.575 5.425C20.475 6.325 21.1877 7.38333 21.713 8.6C22.2383 9.81667 22.5007 11.1167 22.5 12.5C22.5 13.8833 22.2373 15.1833 21.712 16.4C21.1867 17.6167 20.4743 18.675 19.575 19.575C18.675 20.475 17.6167 21.1877 16.4 21.713C15.1833 22.2383 13.8833 22.5007 12.5 22.5ZM12.5 20.5C14.7167 20.5 16.6043 19.721 18.163 18.163C19.7217 16.605 20.5007 14.7173 20.5 12.5C20.5 10.2833 19.721 8.39567 18.163 6.837C16.605 5.27833 14.7173 4.49933 12.5 4.5C10.2833 4.5 8.39567 5.279 6.837 6.837C5.27833 8.395 4.49933 10.2827 4.5 12.5C4.5 14.7167 5.279 16.6043 6.837 18.163C8.395 19.7217 10.2827 20.5007 12.5 20.5Z" fill="#23272E"/>
</svg>
