<svg width="22" height="22" viewBox="0 0 22 22" fill="none" xmlns="http://www.w3.org/2000/svg">
<circle cx="11.0003" cy="10.9998" r="1.83333" stroke="#4B465C" stroke-width="1.5" stroke-linecap="round" stroke-linejoin="round"/>
<circle cx="11.0003" cy="10.9998" r="1.83333" stroke="white" stroke-opacity="0.2" stroke-width="1.5" stroke-linecap="round" stroke-linejoin="round"/>
<path d="M20.1663 11.0002C17.7216 15.2782 14.6663 17.4168 10.9997 17.4168C7.33301 17.4168 4.27776 15.2782 1.83301 11.0002C4.27776 6.72208 7.33301 4.5835 10.9997 4.5835C14.6663 4.5835 17.7216 6.72208 20.1663 11.0002" stroke="#4B465C" stroke-width="1.75" stroke-linecap="round" stroke-linejoin="round"/>
<path d="M20.1663 11.0002C17.7216 15.2782 14.6663 17.4168 10.9997 17.4168C7.33301 17.4168 4.27776 15.2782 1.83301 11.0002C4.27776 6.72208 7.33301 4.5835 10.9997 4.5835C14.6663 4.5835 17.7216 6.72208 20.1663 11.0002" stroke="white" stroke-opacity="0.2" stroke-width="1.75" stroke-linecap="round" stroke-linejoin="round"/>
</svg>
