<svg width="16" height="17" viewBox="0 0 16 17" fill="none" xmlns="http://www.w3.org/2000/svg">
<path d="M15.2395 5.26161C15.1267 5.16327 14.9872 5.10066 14.8388 5.08174C14.6903 5.06282 14.5396 5.08845 14.4058 5.15536L11.2676 6.71786L8.64763 2.36599C8.58028 2.25432 8.48522 2.16194 8.37167 2.09782C8.25811 2.03369 8.12992 2 7.99951 2C7.8691 2 7.7409 2.03369 7.62735 2.09782C7.51379 2.16194 7.41873 2.25432 7.35138 2.36599L4.73138 6.71974L1.59451 5.15724C1.46097 5.09092 1.31082 5.06552 1.1629 5.08422C1.01498 5.10293 0.875881 5.1649 0.763055 5.26237C0.650229 5.35984 0.568704 5.48847 0.528712 5.6321C0.48872 5.77574 0.492041 5.92798 0.538259 6.06974L2.85076 13.1547C2.87401 13.2259 2.91295 13.291 2.96471 13.3451C3.01646 13.3992 3.07971 13.441 3.14978 13.4674C3.21985 13.4938 3.29496 13.5041 3.36955 13.4976C3.44415 13.4911 3.51632 13.4679 3.58076 13.4297C3.59638 13.4204 5.19451 12.4997 7.99951 12.4997C10.8045 12.4997 12.4026 13.4204 12.417 13.4291C12.4815 13.4676 12.5538 13.4911 12.6286 13.4979C12.7033 13.5046 12.7787 13.4944 12.849 13.4681C12.9193 13.4417 12.9828 13.3999 13.0347 13.3456C13.0866 13.2914 13.1256 13.2261 13.1489 13.1547L15.4614 6.07161C15.5089 5.92982 15.5132 5.77709 15.4737 5.63285C15.4342 5.48861 15.3527 5.35938 15.2395 5.26161ZM10.9895 10.2997C10.9691 10.4154 10.9086 10.5202 10.8187 10.5957C10.7287 10.6713 10.6151 10.7127 10.4976 10.7129C10.4683 10.7128 10.439 10.7103 10.4101 10.7054C8.81307 10.4312 7.18095 10.4312 5.58388 10.7054C5.51921 10.7168 5.45292 10.7153 5.3888 10.7011C5.32468 10.6869 5.26399 10.6602 5.21019 10.6225C5.10154 10.5465 5.02755 10.4304 5.00451 10.2997C4.98147 10.1691 5.01126 10.0347 5.08733 9.92604C5.1634 9.81739 5.27952 9.7434 5.41013 9.72036C7.12217 9.4262 8.87185 9.4262 10.5839 9.72036C10.6488 9.73147 10.7109 9.75529 10.7665 9.79045C10.8222 9.82561 10.8704 9.87142 10.9083 9.92526C10.9462 9.97909 10.9732 10.0399 10.9875 10.1041C11.0019 10.1684 11.0034 10.2349 10.992 10.2997H10.9895Z" fill="#7879F1"/>
</svg>
