<svg width="14" height="14" viewBox="0 0 14 14" fill="none" xmlns="http://www.w3.org/2000/svg">
<g clip-path="url(#clip0_377_12942)">
<path d="M12.7446 4.07034C12.6525 3.99006 12.5387 3.93895 12.4175 3.92351C12.2963 3.90807 12.1733 3.92899 12.064 3.98361L9.50243 5.25904L7.36379 1.70671C7.30882 1.61555 7.23122 1.54015 7.13853 1.48781C7.04584 1.43546 6.94119 1.40796 6.83474 1.40796C6.72829 1.40796 6.62365 1.43546 6.53096 1.48781C6.43826 1.54015 6.36067 1.61555 6.30569 1.70671L4.16705 5.26057L1.60649 3.98514C1.49749 3.931 1.37493 3.91027 1.25418 3.92554C1.13344 3.9408 1.01989 3.99139 0.927795 4.07096C0.835698 4.15052 0.769152 4.25551 0.736507 4.37276C0.703862 4.49 0.706573 4.61428 0.7443 4.72999L2.63194 10.5133C2.65092 10.5714 2.6827 10.6245 2.72495 10.6687C2.7672 10.7128 2.81883 10.747 2.87602 10.7685C2.93322 10.7901 2.99453 10.7985 3.05542 10.7932C3.11631 10.7878 3.17523 10.7689 3.22782 10.7378C3.24058 10.7301 4.54509 9.97865 6.83474 9.97865C9.1244 9.97865 10.4289 10.7301 10.4406 10.7373C10.4933 10.7687 10.5523 10.7879 10.6133 10.7934C10.6744 10.7989 10.7359 10.7906 10.7933 10.7691C10.8506 10.7476 10.9025 10.7134 10.9448 10.6691C10.9872 10.6248 11.0191 10.5716 11.0381 10.5133L12.9257 4.73152C12.9645 4.61578 12.968 4.49111 12.9358 4.37337C12.9035 4.25563 12.837 4.15014 12.7446 4.07034ZM9.27541 8.18284C9.25875 8.27726 9.20939 8.36279 9.13597 8.42445C9.06256 8.48612 8.96978 8.51996 8.8739 8.52006C8.84997 8.52003 8.82607 8.51798 8.80248 8.51394C7.49883 8.29014 6.16657 8.29014 4.86292 8.51394C4.81013 8.52325 4.75602 8.52208 4.70368 8.51048C4.65134 8.49888 4.6018 8.47708 4.55789 8.44634C4.46919 8.38424 4.4088 8.28946 4.38999 8.18284C4.37119 8.07622 4.3955 7.96649 4.4576 7.8778C4.51969 7.78911 4.61448 7.72872 4.7211 7.70991C6.11859 7.46979 7.54681 7.46979 8.94431 7.70991C8.99729 7.71897 9.04796 7.73842 9.0934 7.76712C9.13885 7.79582 9.17818 7.83322 9.20914 7.87716C9.24009 7.9211 9.26206 7.97073 9.27378 8.02319C9.28551 8.07564 9.28675 8.1299 9.27745 8.18284H9.27541Z" fill="#7879F1"/>
</g>
<defs>
<clipPath id="clip0_377_12942">
<rect width="13.0604" height="13.0604" fill="white" transform="translate(0.304688 0.183594)"/>
</clipPath>
</defs>
</svg>
