<svg width="22" height="23" viewBox="0 0 22 23" fill="none" xmlns="http://www.w3.org/2000/svg">
<path fill-rule="evenodd" clip-rule="evenodd" d="M9.46458 4.3635C9.85508 2.75383 12.1449 2.75383 12.5354 4.3635C12.6543 4.85397 13.0002 5.25819 13.4664 5.45135C13.9327 5.64451 14.4631 5.60338 14.894 5.34067C16.3084 4.479 17.9282 6.09783 17.0665 7.51317C16.8042 7.94387 16.7631 8.47391 16.9561 8.93985C17.149 9.40579 17.5527 9.75167 18.0428 9.87083C19.6524 10.2613 19.6524 12.5512 18.0428 12.9417C17.5523 13.0605 17.1481 13.4064 16.9549 13.8727C16.7617 14.3389 16.8029 14.8694 17.0656 15.3003C17.9272 16.7147 16.3084 18.3344 14.8931 17.4728C14.4624 17.2104 13.9323 17.1694 13.4664 17.3623C13.0005 17.5553 12.6546 17.959 12.5354 18.449C12.1449 20.0587 9.85508 20.0587 9.46458 18.449C9.34574 17.9585 8.9998 17.5543 8.53357 17.3611C8.06734 17.168 7.53689 17.2091 7.106 17.4718C5.69158 18.3335 4.07183 16.7147 4.9335 15.2993C5.19584 14.8686 5.23687 14.3386 5.04393 13.8727C4.851 13.4067 4.44727 13.0608 3.95725 12.9417C2.34758 12.5512 2.34758 10.2613 3.95725 9.87083C4.44772 9.75199 4.85194 9.40605 5.0451 8.93982C5.23826 8.47359 5.19713 7.94314 4.93442 7.51225C4.07275 6.09783 5.69158 4.47808 7.10692 5.33975C8.02358 5.89708 9.21158 5.40392 9.46458 4.3635Z" stroke="#23272E" stroke-width="1.75" stroke-linecap="round" stroke-linejoin="round"/>
<circle cx="11" cy="11.4062" r="2.75" stroke="#23272E" stroke-width="1.75" stroke-linecap="round" stroke-linejoin="round"/>
</svg>
