<svg width="13" height="14" viewBox="0 0 13 14" fill="none" xmlns="http://www.w3.org/2000/svg">
<path d="M7.58301 12.0101H5.41634V12.8226H7.58301V12.0101ZM1.48926 8.08304V5.91637H0.676758V8.08304H1.48926ZM11.5101 7.84633V8.08304H12.3226V7.84633H11.5101ZM8.06563 2.99733L10.2101 4.92729L10.7534 4.32279L8.60947 2.39283L8.06563 2.99733ZM12.3226 7.84633C12.3226 6.93145 12.3307 6.35187 12.1005 5.83404L11.3579 6.165C11.502 6.48891 11.5101 6.85995 11.5101 7.84633H12.3226ZM10.2101 4.92729C10.943 5.58704 11.2138 5.84162 11.3579 6.165L12.1005 5.83404C11.8698 5.31566 11.4337 4.93487 10.7534 4.32279L10.2101 4.92729ZM5.43259 1.98929C6.28951 1.98929 6.61288 1.99579 6.90051 2.10629L7.19192 1.34795C6.73042 1.17029 6.22776 1.17679 5.43259 1.17679V1.98929ZM8.60947 2.39337C8.02122 1.86416 7.65342 1.52454 7.19192 1.34795L6.90105 2.10629C7.18922 2.21679 7.43188 2.42695 8.06563 2.99733L8.60947 2.39337ZM5.41634 12.0101C4.38338 12.0101 3.64997 12.009 3.09259 11.9343C2.54822 11.8612 2.23405 11.7236 2.00493 11.4945L1.43076 12.0686C1.83593 12.4749 2.34997 12.6542 2.9848 12.7397C3.60772 12.8237 4.40667 12.8226 5.41634 12.8226V12.0101ZM0.676758 8.08304C0.676758 9.0927 0.675675 9.89112 0.759633 10.5146C0.845217 11.1494 1.02505 11.6635 1.43022 12.0692L2.00438 11.495C1.7758 11.2653 1.63822 10.9512 1.56509 10.4062C1.49034 9.84995 1.48926 9.116 1.48926 8.08304H0.676758ZM7.58301 12.8226C8.59267 12.8226 9.39109 12.8237 10.0146 12.7397C10.6494 12.6542 11.1634 12.4743 11.5691 12.0692L10.995 11.495C10.7653 11.7236 10.4511 11.8612 9.90622 11.9343C9.34993 12.009 8.61597 12.0101 7.58301 12.0101V12.8226ZM11.5101 8.08304C11.5101 9.116 11.509 9.84996 11.4343 10.4068C11.3611 10.9512 11.2235 11.2653 10.9944 11.4945L11.5686 12.0686C11.9748 11.6635 12.1541 11.1494 12.2397 10.5146C12.3237 9.89166 12.3226 9.0927 12.3226 8.08304H11.5101ZM1.48926 5.91637C1.48926 4.88341 1.49034 4.15 1.56509 3.59262C1.63822 3.04825 1.7758 2.73408 2.00493 2.50495L1.43076 1.93079C1.02451 2.33595 0.845217 2.85 0.759633 3.48483C0.675675 4.10775 0.676758 4.9067 0.676758 5.91637H1.48926ZM5.43259 1.17679C4.41697 1.17679 3.61476 1.1757 2.98913 1.25966C2.35159 1.34525 1.83593 1.52508 1.43022 1.93025L2.00438 2.50441C2.23405 2.27583 2.54876 2.13825 3.09693 2.06512C3.65647 1.99037 4.39422 1.98929 5.43259 1.98929V1.17679Z" fill="#19379E"/>
<path d="M7.04102 1.85352V3.20768C7.04102 4.48439 7.04102 5.12302 7.43752 5.51952C7.83402 5.91602 8.47264 5.91602 9.74935 5.91602H11.916" stroke="#19379E" stroke-width="1.5"/>
</svg>
