<svg width="14" height="14" viewBox="0 0 14 14" fill="none" xmlns="http://www.w3.org/2000/svg">
<g clip-path="url(#clip0_489_9582)">
<path d="M8.38477 12.0101H6.2181V12.8226H8.38477V12.0101ZM2.29102 8.08304V5.91637H1.47852V8.08304H2.29102ZM12.3118 7.84633V8.08304H13.1243V7.84633H12.3118ZM8.86739 2.99733L11.0118 4.92729L11.5551 4.32279L9.41122 2.39283L8.86739 2.99733ZM13.1243 7.84633C13.1243 6.93145 13.1325 6.35187 12.9023 5.83404L12.1596 6.165C12.3037 6.48891 12.3118 6.85995 12.3118 7.84633H13.1243ZM11.0118 4.92729C11.7447 5.58704 12.0156 5.84162 12.1596 6.165L12.9023 5.83404C12.6715 5.31566 12.2355 4.93487 11.5551 4.32279L11.0118 4.92729ZM6.23435 1.98929C7.09127 1.98929 7.41464 1.99579 7.70227 2.10629L7.99368 1.34795C7.53218 1.17029 7.02952 1.17679 6.23435 1.17679V1.98929ZM9.41122 2.39337C8.82297 1.86416 8.45518 1.52454 7.99368 1.34795L7.70281 2.10629C7.99097 2.21679 8.23364 2.42695 8.86739 2.99733L9.41122 2.39337ZM6.2181 12.0101C5.18514 12.0101 4.45172 12.009 3.89435 11.9343C3.34997 11.8612 3.03581 11.7236 2.80668 11.4945L2.23252 12.0686C2.63768 12.4749 3.15172 12.6542 3.78656 12.7397C4.40947 12.8237 5.20843 12.8226 6.2181 12.8226V12.0101ZM1.47852 8.08304C1.47852 9.0927 1.47743 9.89112 1.56139 10.5146C1.64697 11.1494 1.82681 11.6635 2.23197 12.0692L2.80614 11.495C2.57756 11.2653 2.43997 10.9512 2.36685 10.4062C2.2921 9.84995 2.29102 9.116 2.29102 8.08304H1.47852ZM8.38477 12.8226C9.39443 12.8226 10.1928 12.8237 10.8163 12.7397C11.4511 12.6542 11.9652 12.4743 12.3709 12.0692L11.7967 11.495C11.5671 11.7236 11.2529 11.8612 10.708 11.9343C10.1517 12.009 9.41772 12.0101 8.38477 12.0101V12.8226ZM12.3118 8.08304C12.3118 9.116 12.3108 9.84996 12.236 10.4068C12.1629 10.9512 12.0253 11.2653 11.7962 11.4945L12.3703 12.0686C12.7766 11.6635 12.9559 11.1494 13.0415 10.5146C13.1254 9.89166 13.1243 9.0927 13.1243 8.08304H12.3118ZM2.29102 5.91637C2.29102 4.88341 2.2921 4.15 2.36685 3.59262C2.43997 3.04825 2.57756 2.73408 2.80668 2.50495L2.23252 1.93079C1.82627 2.33595 1.64697 2.85 1.56139 3.48483C1.47743 4.10775 1.47852 4.9067 1.47852 5.91637H2.29102ZM6.23435 1.17679C5.21872 1.17679 4.41652 1.1757 3.79089 1.25966C3.15335 1.34525 2.63768 1.52508 2.23197 1.93025L2.80614 2.50441C3.03581 2.27583 3.35052 2.13825 3.89868 2.06512C4.45822 1.99037 5.19597 1.98929 6.23435 1.98929V1.17679Z" fill="#E35454"/>
<path d="M7.84375 1.85352V3.20768C7.84375 4.48439 7.84375 5.12302 8.24025 5.51952C8.63675 5.91602 9.27537 5.91602 10.5521 5.91602H12.7188" stroke="#E35454" stroke-width="1.5"/>
</g>
<defs>
<clipPath id="clip0_489_9582">
<rect width="13" height="13" fill="white" transform="translate(0.800781 0.5)"/>
</clipPath>
</defs>
</svg>
