<svg width="12" height="11" viewBox="0 0 12 11" fill="none" xmlns="http://www.w3.org/2000/svg">
<g clip-path="url(#clip0_377_13033)">
<path d="M6.76436 9.44824H4.99576V10.1115H6.76436V9.44824ZM1.79018 6.24266V4.47406H1.12695V6.24266H1.79018ZM9.96995 6.04944V6.24266H10.6332V6.04944H9.96995ZM7.15832 2.09131L8.90879 3.66669L9.35227 3.17325L7.60224 1.59788L7.15832 2.09131ZM10.6332 6.04944C10.6332 5.30265 10.6398 4.82955 10.4519 4.40685L9.8457 4.67701C9.96332 4.94141 9.96995 5.24428 9.96995 6.04944H10.6332ZM8.90879 3.66669C9.50702 4.20523 9.72809 4.41304 9.8457 4.67701L10.4519 4.40685C10.2635 3.98372 9.90761 3.67288 9.35227 3.17325L8.90879 3.66669ZM5.00903 1.26847C5.70851 1.26847 5.97247 1.27378 6.20725 1.36398L6.44513 0.744969C6.06842 0.599943 5.6581 0.605249 5.00903 0.605249V1.26847ZM7.60224 1.59832C7.12206 1.16634 6.82184 0.889109 6.44513 0.744969L6.2077 1.36398C6.44292 1.45418 6.641 1.62573 7.15832 2.09131L7.60224 1.59832ZM4.99576 9.44824C4.15258 9.44824 3.55391 9.44736 3.09894 9.38634C2.65458 9.32665 2.39813 9.21435 2.2111 9.02732L1.74243 9.496C2.07315 9.82761 2.49275 9.97396 3.01095 10.0438C3.51943 10.1124 4.1716 10.1115 4.99576 10.1115V9.44824ZM1.12695 6.24266C1.12695 7.06683 1.12607 7.71855 1.1946 8.22747C1.26446 8.74567 1.41126 9.16527 1.74198 9.49644L2.21066 9.02776C2.02408 8.84029 1.91177 8.58384 1.85208 8.13904C1.79106 7.68495 1.79018 7.08584 1.79018 6.24266H1.12695ZM6.76436 10.1115C7.58853 10.1115 8.24026 10.1124 8.74917 10.0438C9.26737 9.97396 9.68697 9.82717 10.0181 9.49644L9.54946 9.02776C9.36199 9.21435 9.10555 9.32665 8.66074 9.38634C8.20666 9.44736 7.60754 9.44824 6.76436 9.44824V10.1115ZM9.96995 6.24266C9.96995 7.08584 9.96906 7.68495 9.90805 8.13948C9.84836 8.58384 9.73605 8.84029 9.54902 9.02732L10.0177 9.496C10.3493 9.16527 10.4957 8.74567 10.5655 8.22747C10.6341 7.719 10.6332 7.06683 10.6332 6.24266H9.96995ZM1.79018 4.47406C1.79018 3.63088 1.79106 3.03221 1.85208 2.57724C1.91177 2.13288 2.02408 1.87643 2.2111 1.6894L1.74243 1.22072C1.41081 1.55145 1.26446 1.97105 1.1946 2.48925C1.12607 2.99772 1.12695 3.64989 1.12695 4.47406H1.79018ZM5.00903 0.605249C4.18 0.605249 3.52517 0.604365 3.01449 0.672898C2.49408 0.742758 2.07315 0.889552 1.74198 1.22028L2.21066 1.68896C2.39813 1.50237 2.65502 1.39007 3.10248 1.33037C3.55922 1.26936 4.16143 1.26847 5.00903 1.26847V0.605249Z" fill="#19379E"/>
<path d="M6.32227 1.15796V2.26333C6.32227 3.30548 6.32227 3.82677 6.64592 4.15043C6.96957 4.47408 7.49087 4.47408 8.53301 4.47408H10.3016" stroke="#19379E" stroke-width="1.22441"/>
</g>
<defs>
<clipPath id="clip0_377_13033">
<rect width="10.6116" height="10.6116" fill="white" transform="translate(0.574219 0.0524902)"/>
</clipPath>
</defs>
</svg>
