<svg width="25" height="24" viewBox="0 0 25 24" fill="none" xmlns="http://www.w3.org/2000/svg">
<path d="M17.8008 12C17.8008 12.5304 18.0115 13.0391 18.3866 13.4142C18.7616 13.7893 19.2703 14 19.8008 14C20.3312 14 20.8399 13.7893 21.215 13.4142C21.5901 13.0391 21.8008 12.5304 21.8008 12C21.8008 11.4696 21.5901 10.9609 21.215 10.5858C20.8399 10.2107 20.3312 10 19.8008 10C19.2703 10 18.7616 10.2107 18.3866 10.5858C18.0115 10.9609 17.8008 11.4696 17.8008 12ZM10.8008 12C10.8008 12.5304 11.0115 13.0391 11.3866 13.4142C11.7616 13.7893 12.2703 14 12.8008 14C13.3312 14 13.8399 13.7893 14.215 13.4142C14.5901 13.0391 14.8008 12.5304 14.8008 12C14.8008 11.4696 14.5901 10.9609 14.215 10.5858C13.8399 10.2107 13.3312 10 12.8008 10C12.2703 10 11.7616 10.2107 11.3866 10.5858C11.0115 10.9609 10.8008 11.4696 10.8008 12ZM3.80078 12C3.80078 12.5304 4.0115 13.0391 4.38657 13.4142C4.76164 13.7893 5.27035 14 5.80078 14C6.33121 14 6.83992 13.7893 7.21499 13.4142C7.59007 13.0391 7.80078 12.5304 7.80078 12C7.80078 11.4696 7.59007 10.9609 7.21499 10.5858C6.83992 10.2107 6.33121 10 5.80078 10C5.27035 10 4.76164 10.2107 4.38657 10.5858C4.0115 10.9609 3.80078 11.4696 3.80078 12Z" fill="#23272E"/>
</svg>
