<svg width="14" height="14" viewBox="0 0 14 14" fill="none" xmlns="http://www.w3.org/2000/svg">
<path d="M8.18262 12.0101H6.01595V12.8226H8.18262V12.0101ZM2.08887 8.08304V5.91637H1.27637V8.08304H2.08887ZM12.1097 7.84633V8.08304H12.9222V7.84633H12.1097ZM8.66524 2.99733L10.8097 4.92729L11.353 4.32279L9.20908 2.39283L8.66524 2.99733ZM12.9222 7.84633C12.9222 6.93145 12.9303 6.35187 12.7001 5.83404L11.9575 6.165C12.1016 6.48891 12.1097 6.85995 12.1097 7.84633H12.9222ZM10.8097 4.92729C11.5426 5.58704 11.8134 5.84162 11.9575 6.165L12.7001 5.83404C12.4694 5.31566 12.0333 4.93487 11.353 4.32279L10.8097 4.92729ZM6.0322 1.98929C6.88912 1.98929 7.21249 1.99579 7.50012 2.10629L7.79153 1.34795C7.33003 1.17029 6.82737 1.17679 6.0322 1.17679V1.98929ZM9.20908 2.39337C8.62083 1.86416 8.25303 1.52454 7.79153 1.34795L7.50066 2.10629C7.78883 2.21679 8.03149 2.42695 8.66524 2.99733L9.20908 2.39337ZM6.01595 12.0101C4.98299 12.0101 4.24958 12.009 3.6922 11.9343C3.14783 11.8612 2.83366 11.7236 2.60453 11.4945L2.03037 12.0686C2.43553 12.4749 2.94958 12.6542 3.58441 12.7397C4.20733 12.8237 5.00628 12.8226 6.01595 12.8226V12.0101ZM1.27637 8.08304C1.27637 9.0927 1.27528 9.89112 1.35924 10.5146C1.44483 11.1494 1.62466 11.6635 2.02983 12.0692L2.60399 11.495C2.37541 11.2653 2.23783 10.9512 2.1647 10.4062C2.08995 9.84995 2.08887 9.116 2.08887 8.08304H1.27637ZM8.18262 12.8226C9.19228 12.8226 9.9907 12.8237 10.6142 12.7397C11.249 12.6542 11.763 12.4743 12.1687 12.0692L11.5946 11.495C11.3649 11.7236 11.0507 11.8612 10.5058 11.9343C9.94953 12.009 9.21558 12.0101 8.18262 12.0101V12.8226ZM12.1097 8.08304C12.1097 9.116 12.1086 9.84996 12.0339 10.4068C11.9607 10.9512 11.8232 11.2653 11.594 11.4945L12.1682 12.0686C12.5745 11.6635 12.7537 11.1494 12.8393 10.5146C12.9233 9.89166 12.9222 9.0927 12.9222 8.08304H12.1097ZM2.08887 5.91637C2.08887 4.88341 2.08995 4.15 2.1647 3.59262C2.23783 3.04825 2.37541 2.73408 2.60453 2.50495L2.03037 1.93079C1.62412 2.33595 1.44483 2.85 1.35924 3.48483C1.27528 4.10775 1.27637 4.9067 1.27637 5.91637H2.08887ZM6.0322 1.17679C5.01658 1.17679 4.21437 1.1757 3.58874 1.25966C2.9512 1.34525 2.43553 1.52508 2.02983 1.93025L2.60399 2.50441C2.83366 2.27583 3.14837 2.13825 3.69653 2.06512C4.25608 1.99037 4.99383 1.98929 6.0322 1.98929V1.17679Z" fill="#2541A4"/>
<path d="M7.64062 1.85352V3.20768C7.64062 4.48439 7.64063 5.12302 8.03713 5.51952C8.43363 5.91602 9.07225 5.91602 10.349 5.91602H12.5156" stroke="#2541A4" stroke-width="1.5"/>
</svg>
