<svg width="10" height="12" viewBox="0 0 10 12" fill="none" xmlns="http://www.w3.org/2000/svg">
<path d="M9.02515 0.652433C9.09777 0.734053 9.15536 0.824139 9.19791 0.92269C9.24046 1.02124 9.2634 1.13417 9.26674 1.26146L9.50934 9.63426C9.51669 9.88798 9.45061 10.105 9.3111 10.2853C9.1716 10.4656 8.99642 10.5604 8.78556 10.5697C8.57505 10.5786 8.39717 10.5014 8.25192 10.3381C8.10668 10.1749 8.03038 9.96642 8.02303 9.7127L7.84292 3.49653L2.15431 10.8488C2.0104 11.0348 1.8396 11.1292 1.64191 11.132C1.44421 11.1348 1.26839 11.0497 1.11443 10.8767C0.960103 10.7032 0.879414 10.4947 0.872356 10.2512C0.865299 10.0076 0.933736 9.79324 1.07767 9.60809L6.75358 2.27222L1.59594 2.48929C1.38542 2.49815 1.20754 2.42096 1.0623 2.25772C0.917051 2.09448 0.840753 1.886 0.833402 1.63228C0.826051 1.37856 0.892297 1.16133 1.03214 0.980584C1.17199 0.79984 1.347 0.705258 1.55718 0.696835L8.5042 0.404452C8.60946 0.400021 8.70453 0.419729 8.78941 0.463575C8.87428 0.507422 8.95286 0.570374 9.02515 0.652433Z" fill="#1EB564"/>
</svg>
