<svg width="22" height="23" viewBox="0 0 22 23" fill="none" xmlns="http://www.w3.org/2000/svg">
<path d="M13.7503 4.98926V6.82259" stroke="#23272E" stroke-width="1.75" stroke-linecap="round" stroke-linejoin="round"/>
<path d="M13.7503 10.4893V12.3226" stroke="#23272E" stroke-width="1.75" stroke-linecap="round" stroke-linejoin="round"/>
<path d="M13.7503 15.9893V17.8226" stroke="#23272E" stroke-width="1.75" stroke-linecap="round" stroke-linejoin="round"/>
<path d="M4.58333 4.98926H17.4167C18.4292 4.98926 19.25 5.81007 19.25 6.82259V9.57259C18.2375 9.57259 17.4167 10.3934 17.4167 11.4059C17.4167 12.4184 18.2375 13.2393 19.25 13.2393V15.9893C19.25 17.0018 18.4292 17.8226 17.4167 17.8226H4.58333C3.57081 17.8226 2.75 17.0018 2.75 15.9893V13.2393C3.76252 13.2393 4.58333 12.4184 4.58333 11.4059C4.58333 10.3934 3.76252 9.57259 2.75 9.57259V6.82259C2.75 5.81007 3.57081 4.98926 4.58333 4.98926" stroke="#23272E" stroke-width="1.75" stroke-linecap="round" stroke-linejoin="round"/>
</svg>
