<svg width="22" height="22" viewBox="0 0 22 22" fill="none" xmlns="http://www.w3.org/2000/svg">
<path d="M3.66602 6.41634H18.3327" stroke="#4B465C" stroke-width="1.5" stroke-linecap="round" stroke-linejoin="round"/>
<path d="M3.66602 6.41634H18.3327" stroke="#E9E7FD" stroke-width="1.5" stroke-linecap="round" stroke-linejoin="round"/>
<path d="M9.16732 10.083V15.583" stroke="#4B465C" stroke-width="1.5" stroke-linecap="round" stroke-linejoin="round"/>
<path d="M9.16732 10.083V15.583" stroke="#E9E7FD" stroke-width="1.5" stroke-linecap="round" stroke-linejoin="round"/>
<path d="M12.8333 10.083V15.583" stroke="#4B465C" stroke-width="1.5" stroke-linecap="round" stroke-linejoin="round"/>
<path d="M12.8333 10.083V15.583" stroke="#E9E7FD" stroke-width="1.5" stroke-linecap="round" stroke-linejoin="round"/>
<path d="M4.58398 6.41699L5.50065 17.417C5.50065 18.4295 6.32146 19.2503 7.33398 19.2503H14.6673C15.6798 19.2503 16.5006 18.4295 16.5006 17.417L17.4173 6.41699" stroke="#4B465C" stroke-width="1.5" stroke-linecap="round" stroke-linejoin="round"/>
<path d="M4.58398 6.41699L5.50065 17.417C5.50065 18.4295 6.32146 19.2503 7.33398 19.2503H14.6673C15.6798 19.2503 16.5006 18.4295 16.5006 17.417L17.4173 6.41699" stroke="#E9E7FD" stroke-width="1.5" stroke-linecap="round" stroke-linejoin="round"/>
<path d="M8.25 6.41667V3.66667C8.25 3.16041 8.66041 2.75 9.16667 2.75H12.8333C13.3396 2.75 13.75 3.16041 13.75 3.66667V6.41667" stroke="#4B465C" stroke-width="1.5" stroke-linecap="round" stroke-linejoin="round"/>
<path d="M8.25 6.41667V3.66667C8.25 3.16041 8.66041 2.75 9.16667 2.75H12.8333C13.3396 2.75 13.75 3.16041 13.75 3.66667V6.41667" stroke="#E9E7FD" stroke-width="1.5" stroke-linecap="round" stroke-linejoin="round"/>
</svg>
