<svg width="20" height="21" viewBox="0 0 20 21" fill="none" xmlns="http://www.w3.org/2000/svg">
<path d="M15.8337 2.073H4.16699C3.50395 2.073 2.86807 2.33639 2.39923 2.80523C1.93038 3.27407 1.66699 3.90996 1.66699 4.573V16.2397C1.66699 16.9027 1.93038 17.5386 2.39923 18.0074C2.86807 18.4763 3.50395 18.7397 4.16699 18.7397H15.8337C15.9707 18.7378 16.1074 18.7238 16.242 18.698L16.492 18.6397H16.592L16.9003 18.523L17.0087 18.4647C17.092 18.4147 17.1837 18.373 17.267 18.3147C17.3783 18.2328 17.484 18.1437 17.5837 18.048L17.642 17.973C17.7238 17.8901 17.799 17.8009 17.867 17.7063L17.942 17.598C18.0002 17.5052 18.0504 17.4076 18.092 17.3063C18.1149 17.2663 18.1344 17.2245 18.1503 17.1813C18.192 17.0813 18.217 16.973 18.2503 16.8647V16.7397C18.2976 16.5768 18.3255 16.409 18.3337 16.2397V4.573C18.3337 3.90996 18.0703 3.27407 17.6014 2.80523C17.1326 2.33639 16.4967 2.073 15.8337 2.073ZM4.16699 17.073C3.94598 17.073 3.73402 16.9852 3.57774 16.8289C3.42146 16.6726 3.33366 16.4607 3.33366 16.2397V12.648L6.07533 9.898C6.15279 9.81989 6.24496 9.7579 6.34651 9.71559C6.44806 9.67328 6.55698 9.6515 6.66699 9.6515C6.777 9.6515 6.88592 9.67328 6.98747 9.71559C7.08902 9.7579 7.18119 9.81989 7.25866 9.898L14.4253 17.073H4.16699ZM16.667 16.2397C16.6662 16.3424 16.6464 16.4441 16.6087 16.5397C16.5896 16.5803 16.5673 16.6193 16.542 16.6563C16.5197 16.6916 16.4946 16.725 16.467 16.7563L12.0087 12.298L12.742 11.5647C12.8195 11.4866 12.9116 11.4246 13.0132 11.3823C13.1147 11.3399 13.2236 11.3182 13.3337 11.3182C13.4437 11.3182 13.5526 11.3399 13.6541 11.3823C13.7557 11.4246 13.8479 11.4866 13.9253 11.5647L16.667 14.3147V16.2397ZM16.667 11.9563L15.1003 10.4063C14.6234 9.95382 13.9911 9.70156 13.3337 9.70156C12.6762 9.70156 12.0439 9.95382 11.567 10.4063L10.8337 11.1397L8.43366 8.73966C7.95676 8.28716 7.32441 8.0349 6.66699 8.0349C6.00958 8.0349 5.37722 8.28716 4.90033 8.73966L3.33366 10.2897V4.573C3.33366 4.35198 3.42146 4.14002 3.57774 3.98374C3.73402 3.82746 3.94598 3.73966 4.16699 3.73966H15.8337C16.0547 3.73966 16.2666 3.82746 16.4229 3.98374C16.5792 4.14002 16.667 4.35198 16.667 4.573V11.9563Z" fill="#8B909A"/>
</svg>
